# xmcd CD database file
#
# Track frame offsets:
#	150
#	9225
#	28300
#	44687
#	60607
#	81022
#	98110
#	115220
#	132847
#	144755
#	164977
#	179802
#	182050
#	184315
#	186562
#	188817
#	191055
#	193285
#	195550
#	197800
#	200047
#	202295
#	204890
#
# Disc length: 3002 seconds
#
# Revision: 3
# Processed by: cddbd v1.4PL0 Copyright (c) Steve Scherf et al.
# Submitted via: CDex 1.40Beta9
#
DISCID=6f0bb817
DTITLE=Pat Macdonald - Degrees Of Gone
DYEAR=1900
DGENRE=Blues
TTITLE0=Gone
TTITLE1=No One´s Daddy
TTITLE2=Comin´ Down
TTITLE3=Jenga
TTITLE4=Hawaii
TTITLE5=The Other Side
TTITLE6=Baby Love
TTITLE7=What Is They?
TTITLE8=Valmy
TTITLE9=Baby Doll
TTITLE10=Comedy
TTITLE11=Blank
TTITLE12=Blank
TTITLE13=Blank
TTITLE14=Blank
TTITLE15=Blank
TTITLE16=Blank
TTITLE17=Blank
TTITLE18=Blank
TTITLE19=Blank
TTITLE20=Blank
TTITLE21=Blank
TTITLE22=Hidden track
EXTD=ID3G: 0
EXTT0=
EXTT1=
EXTT2=
EXTT3=
EXTT4=
EXTT5=
EXTT6=
EXTT7=
EXTT8=
EXTT9=
EXTT10=
EXTT11=
EXTT12=
EXTT13=
EXTT14=
EXTT15=
EXTT16=
EXTT17=
EXTT18=
EXTT19=
EXTT20=
EXTT21=
EXTT22=
PLAYORDER=
